<svg xmlns="http://www.w3.org/2000/svg" xmlns:xlink="http://www.w3.org/1999/xlink" viewBox="0 0 56.5 34.8"><defs><style>.n{fill:url(#d);}.o{fill:url(#g);}.p{fill:url(#h);}.q{fill:url(#j);}.r{fill:url(#m);}.s{fill:none;}.t{fill:#000000;}.u{clip-path:url(#f);}.v{clip-path:url(#l);}</style><linearGradient id="d" x1="32.82" y1="18" x2="33.52" y2="18" gradientTransform="translate(0 38) scale(1 -1)" gradientUnits="userSpaceOnUse"><stop offset="0" stop-color="#eb7000"></stop><stop offset=".5" stop-color="#ff9100"></stop><stop offset="1" stop-color="#fdb60b"></stop></linearGradient><clipPath id="f"><path class="s" d="M32.8,20.2l.7-.4-.7,.4Z"></path></clipPath><linearGradient id="g" y1="18" y2="18" xlink:href="#d"></linearGradient><linearGradient id="h" x1="51.04" y1="24.95" x2="51.06" y2="24.95" xlink:href="#d"></linearGradient><linearGradient id="j" x1="53.63" y1="3.85" x2="54.19" y2="3.85" gradientTransform="translate(0 38) scale(1 -1)" gradientUnits="userSpaceOnUse"><stop offset="0" stop-color="#fd9801"></stop><stop offset="1" stop-color="#fda800"></stop></linearGradient><clipPath id="l"><path class="s" d="M53.6,34.3l.6-.3-.6,.3Z"></path></clipPath><linearGradient id="m" x1="-376.35" y1="-488.76" x2="-376.09" y2="-488.76" gradientTransform="translate(-556.86 504.2) rotate(90) scale(1.25)" xlink:href="#j"></linearGradient></defs><g id="a"></g><g id="b"><g id="c"><g><path class="t" d="M44.7,1.1l-26.2,15.1-.9,.5-6.9,4v5.4L51.3,2.7c.8-.4,1.6-.6,2.5-.5h0c.2,0,.3,.1,.5,.1h.1c-1.6-1.5-3.6-2.3-5.7-2.3-1.4,0-2.7,.3-4,1.1"></path><path class="t" d="M3.2,2.8h-1.2c-.1,0-.1,.1-.2,.1h-.1s-.1,0-.1,.1h0c-.1,0-.1,.1-.2,.1h0s-.1,0-.1,.1h0c-.2,.5-.3,.5-.4,.6H.9l-.1,.1H.8c-.1,.2-.2,.2-.2,.3-.4,.5-.6,1.2-.6,1.9V29.8H0c0,1.8,.9,3.3,2.3,4.2l.5,.3c.6,.3,1.3,.5,2,.5V9.4c0-.2,.1-.3,.2-.4,.1-.1,.3-.1,.5,0l5.2,3h0l6.9,4,4.7-2.7-7-4.1L5,3.2h0l-.1-.1h-.4q-.3-.1-.4-.1h-.9q.1-.2,0-.2h0"></path><path class="t" d="M2.3,2.3c.3-.1,.7-.1,1-.1h1.3s.1,0,.1,.1h.1s.1,0,.1,.1c0,0,.1,0,.1,.1h0L22.9,13l3.6-2.1,1.1-.6L13.2,2C11,.8,9.1,.2,7.4,.2,5.5,.2,3.9,.9,2.3,2.3"></path><g><path id="e" class="n" d="M32.8,20.2l.7-.4-.7,.4Z"></path><g class="u"><rect class="o" x="32.8" y="19.8" width=".7" height=".4"></rect></g></g><g><polygon id="i" class="p" points="51 9.7 51.1 16.4 51.1 9.7 51 9.7"></polygon><g></g></g><polygon class="t" points="34.1 19.5 45.8 26.2 45.8 20.7 38.8 16.7 34.1 19.5"></polygon><path class="t" d="M51.6,3.2L10,27.2h0V12.4l-4.7-2.7v25.1c.7,0,1.4-.2,1.9-.5,5.2-2.8,20.3-11.7,20.3-11.7l11.1-6.4,12.4-7.2c.1-.1,.3-.1,.5,0,.1,.1,.2,.2,.2,.4v25.4c.7,0,1.4-.2,2-.5l.6-.3c1.3-.9,2.2-2.4,2.2-4.1h0V6.1c0-.8-.3-1.6-.9-2.2l-.1-.1c-.3-.3-.5-.4-.9-.6h0c-.1,0-.1-.1-.2-.1h0q-.1,0-.2-.1h0c-.3-.1-.6-.1-.9-.1-.6-.1-1.2,0-1.7,.3"></path><g><path id="k" class="q" d="M53.6,34.3l.6-.3-.6,.3Z"></path><g class="v"><rect class="r" x="53.6" y="33.9" width=".6" height=".3"></rect></g></g><path class="t" d="M46.4,12.4v14.9l-12.9-7.4-4.7,2.7s15.2,8.9,20.3,11.7c.6,.3,1.2,.5,1.9,.5V9.7l-4.6,2.7Z"></path></g></g></g></svg>