<svg version="1.1" id="Layer_1" xmlns="http://www.w3.org/2000/svg" xmlns:xlink="http://www.w3.org/1999/xlink" x="0px" y="0px" viewBox="0 0 512 512" style="enable-background:new 0 0 512 512;" xml:space="preserve">
<path d="M365.5,39.5c-43.6,0-82.7,19-109.5,49.2c-26.8-30.2-65.9-49.2-109.5-49.2C65.6,39.5,0,105.1,0,186
	C0,276.9,109.7,365.9,166.8,410c37,28.6,89.2,62.5,89.2,62.5s52.3-33.9,89.2-62.5C402.3,365.9,512,276.9,512,186
	C512,105.1,446.4,39.5,365.5,39.5z"></path>
<polygon points="164,137.5 164,137.5 190.9,137.5 190.9,211.9 235.3,211.9 235.3,235.4 164,235.4 164,137.5 "></polygon>
<polygon points="211,363.2 188.7,363.2 152.3,265.3 180.7,265.3 199.9,329.4 218.7,265.3 247,265.3 "></polygon>
<polygon points="277.9,363.2 277.9,265.3 346.4,265.3 346.4,288.7 304.8,288.7 304.8,302.5 340.3,302.5 340.3,324.3 304.8,324.3 
	304.8,339.7 347.6,339.7 347.6,363.2 "></polygon>
<path d="M312.6,236.2c-28,0-46.7-24.7-46.7-49.9c0-25.9,19.9-49.4,47.3-49.4c28.1,0,46.6,25,46.6,49.9
	C359.7,212.5,340.1,236.2,312.6,236.2z"></path>
<g>
	<g>
		<path d="M312.7,160.8c-13.5,0-19.6,13-19.6,25.8c0,13.1,6.3,25.8,19.7,25.8c13.7,0,19.6-13.2,19.6-26.1
			C332.4,173.1,325.9,160.8,312.7,160.8z"></path>
	</g>
</g>
</svg>