<?xml version="1.0" encoding="UTF-8"?><svg id="Capa_2" xmlns="http://www.w3.org/2000/svg" xmlns:xlink="http://www.w3.org/1999/xlink" viewBox="0 0 1902.29 796.76"><defs><style>.cls-1{fill:#cecece;}.cls-2{fill:#131f49;}.cls-3{fill:#212c53;}.cls-4{fill:url(#Degradado_sin_nombre_13);}.cls-5{fill:url(#Degradado_sin_nombre_12);}</style><linearGradient id="Degradado_sin_nombre_13" x1="1105.23" y1="177.12" x2="1109.87" y2="486.05" gradientTransform="matrix(1, 0, 0, 1, 0, 0)" gradientUnits="userSpaceOnUse"><stop offset="0" stop-color="#b2b2b2"/><stop offset=".03" stop-color="#9d9d9d" stop-opacity=".89"/><stop offset=".08" stop-color="#787878" stop-opacity=".68"/><stop offset=".14" stop-color="#585858" stop-opacity=".49"/><stop offset=".21" stop-color="#3c3c3c" stop-opacity=".34"/><stop offset=".28" stop-color="#262626" stop-opacity=".21"/><stop offset=".37" stop-color="#141414" stop-opacity=".12"/><stop offset=".47" stop-color="#080808" stop-opacity=".05"/><stop offset=".62" stop-color="#010101" stop-opacity=".01"/><stop offset="1" stop-color="#000" stop-opacity="0"/></linearGradient><linearGradient id="Degradado_sin_nombre_12" x1="794.1" y1="167.88" x2="798.66" y2="476.81" gradientTransform="matrix(1, 0, 0, 1, 0, 0)" gradientUnits="userSpaceOnUse"><stop offset="0" stop-color="#b2b2b2"/><stop offset=".01" stop-color="#a9a9a9" stop-opacity=".96"/><stop offset=".08" stop-color="#828282" stop-opacity=".73"/><stop offset=".15" stop-color="#5e5e5e" stop-opacity=".53"/><stop offset=".23" stop-color="#414141" stop-opacity=".37"/><stop offset=".32" stop-color="#292929" stop-opacity=".23"/><stop offset=".42" stop-color="#161616" stop-opacity=".13"/><stop offset=".54" stop-color="#090909" stop-opacity=".05"/><stop offset=".69" stop-color="#020202" stop-opacity=".01"/><stop offset="1" stop-color="#000" stop-opacity="0"/></linearGradient></defs><g id="Capa_2-2"><g><g><path class="cls-4" d="M971.38,249.2s44.65,214.48,290.5,264.38c.21-4.67,.32-9.37,.32-14.1,0-170.86-138.23-309.42-308.96-309.98l18.14,59.7Z"/><path class="cls-5" d="M933.07,249.2l18.14-59.7c-170.73,.55-308.96,139.12-308.96,309.98,0,4.6,.11,9.17,.3,13.72,237.91-50.6,290.52-264,290.52-264Z"/></g><path class="cls-2" d="M951.2,.03l.14-.02s4.46-.75,7.45,10.28c2.99,11.02,3.74,13.27,3.74,13.27l5.98,5.23s1.49,1.12,1.31,6.91c-.19,5.79-1.31,11.76-1.31,11.76,0,0-1.09,2.62,1.32,5.8s9.51,11.29,9.89,17.14c.37,5.85,0,10.14,0,10.14,0,0-.56,2.43-3.36,0-2.8-2.43-10.74-10.14-10.74-10.14,0,0-1.96-.32-2.15,2.67l-.19,2.99s-.77,4.46-12.08,4.42c-11.31,.04-12.08-4.42-12.08-4.42l-.19-2.99c-.19-2.99-2.15-2.67-2.15-2.67,0,0-7.94,7.71-10.74,10.14s-3.36,0-3.36,0c0,0-.37-4.3,0-10.14s7.47-13.96,9.89-17.14c2.41-3.18,1.32-5.8,1.32-5.8,0,0-1.12-5.97-1.31-11.76-.19-5.79,1.31-6.91,1.31-6.91l5.98-5.23s.75-2.24,3.74-13.27C946.6-.74,951.06,.01,951.06,.01l.14,.02Z"/><path class="cls-1" d="M951.2,18.49c0,.12,4.54-.6,5.85,4.66,1.31,5.26,2.07,8.26,2.07,8.26,0,0,1.03,2.25-.88,6.43-1.91,4.18-2.27,6.21-2.51,8.84-.24,2.63-.5,11.95-.5,11.95,0,0-.34,5.73-4.04,5.97-3.7-.24-4.04-5.97-4.04-5.97,0,0-.26-9.32-.5-11.95-.24-2.63-.6-4.66-2.51-8.84-1.91-4.18-.88-6.43-.88-6.43,0,0,.76-3,2.07-8.26,1.31-5.26,5.85-4.54,5.85-4.66Z"/><path class="cls-2" d="M952.23,190.23c166.69,0,302.65,131.58,309.69,296.54,.19-4.46,.29-8.94,.29-13.44,0-171.2-138.78-309.98-309.98-309.98s-309.98,138.78-309.98,309.98c0,4.5,.1,8.98,.29,13.44,7.04-164.96,143-296.54,309.69-296.54Z"/><path class="cls-2" d="M579.08,522.22c292.25-22.57,353.99-273.05,353.99-273.05l18.42-60.63,.74-3.51,.74,3.51,18.42,60.63s52.13,250.48,353.99,273.05c17.2,1.29,34.43,2.42,51.6,3.41h483.09s-274.92-2.56-539.67-22.35c-301.86-22.57-349.01-321.79-349.01-321.79l-18.42-87.82-.74-3.51-.74,3.51-18.42,87.82s-57.85,299.22-350.1,321.79c-264.52,20.43-538.58,22.35-538.58,22.35h484.95c16.56-1,33.16-2.13,49.74-3.41Z"/><g id="Capa_2-3"><g id="Capa_1-2"><path class="cls-3" d="M39.5,673.7c-15.7,0-27.73-5.12-39.5-15.68l4.76-5.44c10.77,9.96,20.73,14.58,35.15,14.58s24.89-8.27,24.89-19.56v-.28c0-10.36-5.48-16.39-27.73-20.87-23.63-4.71-33.14-12.69-33.14-27.54v-.28c0-14.56,13.3-25.76,31.5-25.76,12.3-.41,24.31,3.83,33.62,11.89l-4.62,5.74c-7.98-7.3-18.46-11.26-29.28-11.06-14.42,0-23.95,8.27-23.95,18.49v.28c0,10.36,5.33,16.66,28.57,21.33,22.7,4.62,32.21,12.75,32.21,27.04v.27c0,15.93-13.58,26.85-32.48,26.85Z"/><path class="cls-3" d="M143.83,672.29v-97.94h69.74v6.63h-62.46v38.51h56.16v6.72h-56.16v39.36h63.17v6.72h-70.46Z"/><path class="cls-3" d="M356.16,672.29l-31.24-40.61h-32v40.61h-7.29v-97.94h41.17c21.16,0,35.02,11.48,35.02,27.86v.28c0,16.39-12.2,25.78-28.71,28.02l32.36,41.87-9.32-.09Zm-1.78-69.89c0-13.16-10.36-21.33-28.14-21.33h-33.39v44.02h33.05c16.39,0,28.57-8.25,28.57-22.4l-.09-.28Z"/><path class="cls-3" d="M479.66,673.91c-30.95,0-49.3-22.83-49.3-50.42v-.28c0-26.4,19.2-50.63,48.46-50.63,16,0,26.05,4.76,35.86,12.89l-4.76,5.46c-8.54-7.93-19.87-12.16-31.52-11.77-23.81,0-40.46,20.18-40.46,43.84v.28c0,25.35,15.82,44.25,42.01,44.25,11.38-.1,22.39-4.04,31.24-11.2v-28.14h-32.78v-6.72h39.79v37.81c-10.67,9.35-24.34,14.54-38.53,14.63Z"/><path class="cls-3" d="M593.39,672.29v-97.94h7.27v97.94h-7.27Z"/><path class="cls-3" d="M723.58,673.91c-29.69,0-49.16-23.68-49.16-50.42v-.28c0-26.67,19.73-50.7,49.44-50.7s49.16,23.66,49.16,50.42q.14,.14,0,.28c-.09,26.83-19.84,50.7-49.44,50.7Zm41.78-50.63c0-24.23-17.64-44.13-41.78-44.13s-41.6,19.56-41.6,43.84v.28c0,24.23,17.65,44.11,41.89,44.11s41.58-19.56,41.58-43.82l-.09-.28Z"/><path class="cls-3" d="M955.82,673.7c-14.56,0-23.66-7.56-29.69-18.35l6.03-3.79c6.03,10.22,12.6,15.56,24.09,15.56s21.33-9.1,21.33-26.19v-66.58h7.29v66.01c-.05,21.99-12.8,33.33-29.05,33.33Z"/><path class="cls-3" d="M1060.31,672.29v-97.94h69.74v6.63h-62.47v38.51h56.16v6.72h-56.16v39.36h63.13v6.72h-70.4Z"/><path class="cls-3" d="M1202.04,672.29v-97.94h7.27v91.22h57.57v6.72h-64.84Z"/><path class="cls-3" d="M1337.6,672.29v-97.94h7.29v97.94h-7.29Z"/><path class="cls-3" d="M1498.94,672.29l-69.05-87.11v87.11h-7v-97.94h6.86l67.56,85.34v-85.34h7v97.94h-5.37Z"/><path class="cls-3" d="M1625.82,673.91c-28.02,0-48.75-22.28-48.75-50.42v-.28c0-27.66,20.73-50.63,49.02-50.63,17.51,0,28.02,6.44,38.1,15.68l-5.17,5.33c-8.55-8.27-18.35-14.44-33.07-14.44-23.52,0-41.32,19.2-41.32,43.84v.28c0,24.78,18.08,44.11,41.46,44.11,14.22,0,23.82-5.46,33.78-15.25l4.91,4.76c-10.38,10.22-21.6,17.01-38.95,17.01Z"/><path class="cls-3" d="M1733.65,672.29v-97.94h7.29v97.94h-7.29Z"/><path class="cls-3" d="M1863.34,673.91c-28.02,0-48.75-22.28-48.75-50.42v-.28c0-27.73,20.73-50.7,49.02-50.7,17.51,0,28.02,6.44,38.1,15.68l-5.17,5.33c-8.55-8.27-18.35-14.44-33.07-14.44-23.52,0-41.32,19.2-41.32,43.84v.28c0,24.78,18.08,44.11,41.46,44.11,14.22,0,23.82-5.46,33.78-15.25l4.91,4.76c-10.38,10.29-21.6,17.09-38.95,17.09Z"/><path class="cls-3" d="M370.72,777.13v18.76h-3.56v-18.69l-20.23-28.45h4.39l17.65,25.35,17.78-25.35h4.18l-20.21,28.37Z"/><path class="cls-3" d="M430.24,796.71c-9.71,.01-17.59-7.85-17.6-17.56,0-.11,0-.22,0-.32v-.12c-.13-9.82,7.73-17.88,17.55-18.01,.08,0,.16,0,.23,0,9.71-.01,17.59,7.85,17.6,17.56,0,.07,0,.14,0,.21v.14c.18,9.82-7.64,17.92-17.46,18.1-.11,0-.22,0-.32,0Zm14.22-18.01c.27-7.97-5.98-14.64-13.95-14.91-.09,0-.18,0-.28,0-8.16,0-14.03,6.68-14.03,14.77v.14c-.27,7.96,5.97,14.63,13.93,14.89,.1,0,.2,0,.29,0,8.16,0,14.03-6.67,14.03-14.77v-.12Z"/><path class="cls-3" d="M506.69,795.89v-6.42c-2.41,4.6-7.25,7.41-12.44,7.22-8.69,0-13.74-5.94-13.74-14.22v-20.98h3.29v20.45c0,7.11,3.98,11.73,10.93,11.73,6.51,.08,11.85-5.12,11.94-11.63,0-.22,0-.43,0-.65v-19.89h3.31v34.4h-3.27Z"/><path class="cls-3" d="M563.84,764.58c-7.96,0-14.9,5.99-14.9,17.19v14.1h-3.31v-34.38h3.31v9.78c2.46-6.26,8.51-10.36,15.24-10.31v3.63h-.34Z"/><path class="cls-3" d="M656.02,778.29h-12.75v17.6h-3.56v-47.2h17.14c10.38,0,17.53,5.33,17.53,14.42v.14c-.04,9.92-8.59,15.04-18.37,15.04Zm14.9-14.97c0-7.48-5.8-11.4-14.22-11.4h-13.35v23.11h12.94c8.76,0,14.7-4.59,14.7-11.61l-.07-.11Z"/><path class="cls-3" d="M729.98,795.89v-5.72c-3.02,4.22-7.94,6.68-13.14,6.54-6.42,0-13.3-3.56-13.3-10.79v-.14c0-7.11,6.15-11.2,15.04-11.2,3.85-.04,7.69,.46,11.4,1.49v-1.49c0-6.93-4.25-10.51-11.32-10.51-3.77,.03-7.47,.97-10.79,2.76l-1.21-2.9c3.78-1.92,7.96-2.93,12.2-2.97,8.89,0,14.36,4.59,14.36,13.49v21.44h-3.24Zm0-16.78c-3.8-1.03-7.72-1.55-11.66-1.56-7.29,0-11.32,3.24-11.32,8.04v.12c0,5,4.71,7.89,9.97,7.89,7,0,13.01-4.32,13.01-10.58v-3.91Z"/><path class="cls-3" d="M786.36,764.58c-7.96,0-14.9,5.99-14.9,17.19v14.1h-3.31v-34.38h3.31v9.78c2.46-6.26,8.51-10.36,15.24-10.31v3.63h-.34Z"/><path class="cls-3" d="M829.65,796.58c-5.33,0-9.65-2.9-9.65-9.44v-22.56h-4.98v-3.04h4.98v-10.99h3.31v10.99h12.07v3.04h-12.07v22.19c0,4.92,2.9,6.68,6.88,6.68,1.76-.01,3.5-.43,5.07-1.23v3.11c-1.75,.83-3.66,1.26-5.6,1.24Z"/><path class="cls-3" d="M894.38,795.89v-20.43c0-7.11-3.98-11.73-10.92-11.73-6.51-.09-11.86,5.11-11.96,11.62,0,.22,0,.43,0,.65v19.89h-3.31v-34.4h3.31v6.42c2.41-4.61,7.25-7.42,12.44-7.22,8.69,0,13.76,5.94,13.76,14.22v21.03l-3.34-.05Z"/><path class="cls-3" d="M947.25,793.6c4.52,.03,8.83-1.92,11.79-5.33l2.29,2.01c-3.51,4.21-8.74,6.6-14.22,6.49-9.03,0-16.85-7.22-16.85-17.96v-.12c0-9.97,7-17.94,16.32-17.94s15.77,7.82,15.77,18.01v.05c.03,.41,.03,.82,0,1.23h-28.45c.46,8.57,6.58,13.56,13.35,13.56Zm11.52-16.52c-.46-6.95-4.44-13.35-12.34-13.35-6.81,0-12.07,5.72-12.68,13.35h25.01Z"/><path class="cls-3" d="M1013.26,764.58c-7.96,0-14.9,5.99-14.9,17.19v14.1h-3.31v-34.38h3.31v9.78c2.46-6.26,8.51-10.36,15.24-10.31v3.63h-.34Z"/><path class="cls-3" d="M1088.45,752.53v-4.52h4.11v4.52h-4.11Zm.39,43.36v-34.4h3.31v34.4h-3.31Z"/><path class="cls-3" d="M1154.39,795.89v-20.43c0-7.11-3.98-11.73-10.92-11.73-6.51-.09-11.86,5.11-11.96,11.62,0,.22,0,.43,0,.65v19.89h-3.31v-34.4h3.31v6.42c2.41-4.61,7.25-7.42,12.44-7.22,8.71,0,13.76,5.94,13.76,14.22v21.03l-3.34-.05Z"/><path class="cls-3" d="M1258.3,796.71c-14.92,0-23.73-11-23.73-24.29v-.14c0-12.75,9.23-24.41,23.33-24.41,6.34-.22,12.52,2,17.26,6.2l-2.22,2.63c-4.11-3.82-9.56-5.86-15.17-5.67-11.47,0-19.56,9.72-19.56,21.12v.12c0,12.21,7.63,21.33,20.23,21.33,5.47-.03,10.77-1.91,15.04-5.33v-13.56h-15.77v-3.24h19.13v18.21c-5.14,4.49-11.72,6.98-18.54,7.02Z"/><path class="cls-3" d="M1330.04,764.58c-7.95,0-14.9,5.99-14.9,17.19v14.1h-3.31v-34.38h3.31v9.78c2.46-6.25,8.51-10.35,15.24-10.31v3.63h-.34Z"/><path class="cls-3" d="M1375.43,796.71c-9.71,.01-17.59-7.85-17.6-17.56,0-.11,0-.22,0-.32v-.12c-.13-9.82,7.73-17.88,17.55-18.01,.08,0,.16,0,.23,0,9.71-.01,17.59,7.85,17.6,17.56,0,.07,0,.14,0,.21v.14c.18,9.82-7.64,17.92-17.46,18.1-.11,0-.22,0-.32,0Zm14.22-18.01c.28-7.96-5.95-14.63-13.91-14.91-.1,0-.21,0-.31,0-8.16,0-14.03,6.68-14.03,14.77v.14c-.27,7.96,5.97,14.63,13.93,14.89,.1,0,.2,0,.29,0,8.16,0,14.03-6.67,14.03-14.77v-.12Z"/><path class="cls-3" d="M1460.59,796.16h-2.76l-10.26-29.48-10.31,29.48h-2.9l-12.62-34.67h3.72l10.38,30.22,10.38-30.35h2.72l10.38,30.35,10.4-30.22h3.56l-12.69,34.67Z"/><path class="cls-3" d="M1517.3,796.58c-5.33,0-9.65-2.9-9.65-9.44v-22.56h-4.98v-3.04h4.94v-10.99h3.31v10.99h12.07v3.04h-12.07v22.19c0,4.92,2.92,6.68,6.88,6.68,1.76-.01,3.5-.43,5.07-1.23v3.11c-1.74,.83-3.64,1.25-5.56,1.24Z"/><path class="cls-3" d="M1582.03,795.89v-20.43c0-7.11-3.98-11.73-10.92-11.73-6.51-.09-11.86,5.11-11.96,11.62,0,.22,0,.43,0,.65v19.89h-3.31v-49.23h3.31v21.33c2.41-4.61,7.25-7.42,12.44-7.22,8.71,0,13.76,5.94,13.76,14.22v21.03l-3.34-.14Z"/></g></g></g></g></svg>